# xmcd
#
# Track frame offsets:
#	150
#	599
#	19991
#	35304
#	55246
#	70596
#	86844
#	106821
#	126819
#	144999
#	161299
#	179366
#	199606
#	222861
#
# Disc length: 3111 seconds
# Revision: 0
# Processed by: cddbd v1.5.2PL0 Copyright (c) Steve Scherf et al.
# Submitted via: dBpowerAMP V12.0
#
DISCID=b20c250e
DTITLE=Cowboy Junkies - Lay It Down
DYEAR=1995
DGENRE=Country
TTITLE0=extra track
TTITLE1=Something More Besides You
TTITLE2=A Common Disaster
TTITLE3=Lay It Down
TTITLE4=Hold On To Me
TTITLE5=Come Calling (His Song)
TTITLE6=Just Want To See
TTITLE7=Lonely Sinking Feeling
TTITLE8=Angel Mine
TTITLE9=Bea's Song (River Song Trilogy: Part II)
TTITLE10=Musical Key
TTITLE11=Speaking Confidentially
TTITLE12=Come Calling (Her Song)
TTITLE13=Now I Know
EXTD=
EXTT0=
EXTT1=
EXTT2=
EXTT3=
EXTT4=
EXTT5=
EXTT6=
EXTT7=
EXTT8=
EXTT9=
EXTT10=
EXTT11=
EXTT12=
EXTT13=
PLAYORDER=
